HIERARCHY
ROOT Hips
{
	OFFSET 0.00 0.00 0.00
	CHANNELS 6 Xposition Yposition Zposition Xrotation Yrotation Zrotation
	JOINT Spine
	{
		OFFSET 0.00000 5.09557 0.00000
		CHANNELS 3 Xrotation Yrotation Zrotation
		JOINT Head
		{
			OFFSET 0.00000 15.96733 0.00000
			CHANNELS 3 Xrotation Yrotation Zrotation
			End Site
			{
				OFFSET 0.00000 4.52755 0.00000
			}
		}
		JOINT LeftShoulder
		{
			OFFSET 0.00000 12.07196 0.00000
			CHANNELS 3 Xrotation Yrotation Zrotation
			JOINT LeftArm
			{
				OFFSET 7.25857 0.00000 0.00000
				CHANNELS 3 Xrotation Yrotation Zrotation
				JOINT LeftForeArm
				{
					OFFSET 10.69841 0.00000 0.00000
					CHANNELS 3 Zrotation Yrotation Xrotation
					JOINT LeftHand
					{
						OFFSET 7.95967 0.00000 0.00000
						CHANNELS 3 Xrotation Yrotation Zrotation
						JOINT LeftHandThumb1
						{
							OFFSET 0.00000 0.00000 0.00000
							CHANNELS 3 Xrotation Yrotation Zrotation
							End Site
							{
								OFFSET 0.00000 0.00000 3.93700
							}
						}
						End Site
						{
							OFFSET 3.93700 0.00000 0.00000
						}
					}
				}
			}
		}
		JOINT RightShoulder
		{
			OFFSET 0.00000 12.07196 0.00000
			CHANNELS 3 Xrotation Yrotation Zrotation
			JOINT RightArm
			{
				OFFSET -7.25857 0.00000 0.00000
				CHANNELS 3 Xrotation Yrotation Zrotation
				JOINT RightForeArm
				{
					OFFSET -10.69841 0.00000 0.00000
					CHANNELS 3 Zrotation Yrotation Xrotation
					JOINT RightHand
					{
						OFFSET -7.95967 0.00000 0.00000
						CHANNELS 3 Xrotation Yrotation Zrotation
						JOINT RightHandThumb1
						{
							OFFSET 0.00000 0.00000 0.00000
							CHANNELS 3 Xrotation Yrotation Zrotation
							End Site
							{
								OFFSET 0.00000 0.00000 3.93700
							}
						}
						End Site
						{
							OFFSET -3.93700 0.00000 0.00000
						}
					}
				}
			}
		}
	}
	JOINT LeftUpLeg
	{
		OFFSET 4.27803 0.00000 0.00000
		CHANNELS 3 Xrotation Yrotation Zrotation
		JOINT LeftLeg
		{
			OFFSET 0.00000 -17.05705 0.00000
			CHANNELS 3 Xrotation Yrotation Zrotation
			JOINT LeftFoot
			{
				OFFSET 0.00000 -17.44364 0.00000
				CHANNELS 3 Xrotation Yrotation Zrotation
				JOINT LeftToeBase
				{
					OFFSET 0.00000 -1.31641 4.91291
					CHANNELS 3 Xrotation Yrotation Zrotation
					End Site
					{
						OFFSET 0.00000 0.00000 2.95275
					}
				}
			}
		}
	}
	JOINT RightUpLeg
	{
		OFFSET -4.27803 0.00000 0.00000
		CHANNELS 3 Xrotation Yrotation Zrotation
		JOINT RightLeg
		{
			OFFSET 0.00000 -17.05705 0.00000
			CHANNELS 3 Xrotation Yrotation Zrotation
			JOINT RightFoot
			{
				OFFSET 0.00000 -17.44364 0.00000
				CHANNELS 3 Xrotation Yrotation Zrotation
				JOINT RightToeBase
				{
					OFFSET 0.00000 -1.31641 4.91291
					CHANNELS 3 Xrotation Yrotation Zrotation
					End Site
					{
						OFFSET 0.00000 0.00000 2.95275
					}
				}
			}
		}
	}
}
MOTION
Frames: 11
Frame Time: 0.008333
 11.4607 35.5787 -10.1166 4.9410 -14.6314 3.5798 -2.2513 -18.8939 -2.4761 -11.4816 12.7388 23.5341 -1.0784 26.9611 6.1321 -3.5897 -4.4776 -65.6056 0.0000 -11.5126 39.4065 1.5733 -12.2201 7.3935 33.1476 26.2537 0.0000 1.5020 -6.7492 3.6555 -27.6139 -7.8816 41.2749 0.0000 25.9858 36.7931 0.1494 8.1521 -1.0538 32.8623 -24.3270 -0.0000 4.6405 8.0625 -4.1724 -1.3606 0.0000 0.0000 -22.8985 23.9415 1.3633 23.7212 -0.0000 0.0000 -17.9923 -16.1037 -14.3731 14.9018 0.0000 0.0000 -16.1641 -34.0646 -12.1961 2.3848 0.0000 -0.0000
 11.4887 35.5617 -10.0883 4.9979 -14.8632 3.7331 -2.1843 -18.9010 -2.0697 -11.4482 12.9387 23.4530 -0.9356 27.2309 5.8285 -3.8740 -3.1514 -64.8166 0.0000 -10.5233 38.4944 1.4247 -11.8236 6.9208 33.1476 26.2537 0.0000 0.9833 -6.6490 2.9991 -28.7935 -8.1957 39.8997 0.0000 25.9354 36.1925 0.2125 7.7825 -1.5690 32.8623 -24.3270 -0.0000 4.7368 8.0945 -4.3908 -1.4615 0.0000 0.0000 -22.9672 23.9908 1.5550 23.6504 0.0000 0.0000 -17.5824 -15.8571 -14.7723 13.2981 0.0000 -0.0000 -14.7587 -34.4961 -11.7242 2.6171 0.0000 -0.0000
 11.5087 35.5416 -10.0615 5.0769 -15.1009 3.9046 -2.1325 -18.8454 -1.6895 -11.4535 13.0603 23.3801 -0.8672 27.4637 5.5783 -4.2124 -1.6012 -63.9837 0.0000 -9.7102 37.8186 1.2670 -11.4665 6.3483 33.1476 26.2537 -0.0000 0.4980 -6.5683 2.4049 -29.9382 -8.4145 38.4827 -0.0000 25.9735 35.5220 0.2848 7.1974 -2.2722 32.8623 -24.3270 0.0000 4.8113 8.0915 -4.6099 -1.5553 0.0000 0.0000 -23.0844 24.0568 1.7753 23.7142 -0.0000 0.0000 -17.0986 -15.4177 -15.1037 11.7786 0.0000 -0.0000 -13.5377 -34.1691 -10.8444 3.5994 -0.0000 0.0000
 11.5238 35.5192 -10.0353 5.1828 -15.3157 4.0740 -2.1106 -18.7332 -1.2916 -11.4401 13.1256 23.2834 -0.7560 27.7582 5.3021 -4.6799 -0.1610 -63.0908 0.0000 -8.9634 37.0891 1.1482 -11.0449 5.9727 33.1476 26.2537 0.0000 0.0784 -6.5461 1.7642 -31.1003 -8.6925 37.2117 -0.0000 26.1384 34.5176 0.3365 6.7649 -2.8544 32.8623 -24.3270 -0.0000 4.8675 8.0340 -4.8120 -1.6820 -0.0000 -0.0000 -23.1797 24.1635 2.0694 23.6092 0.0000 -0.0000 -16.6274 -14.9572 -15.4121 10.3715 -0.0000 0.0000 -12.2363 -33.2175 -9.8690 5.4536 -0.0000 -0.0000
 11.5311 35.4954 -10.0068 5.3060 -15.5542 4.2563 -2.1188 -18.5439 -0.9030 -11.4370 13.1968 23.1951 -0.7435 28.0436 5.0837 -5.1277 1.2790 -62.1304 0.0000 -8.3169 36.4443 1.0383 -10.7245 5.5629 33.1476 26.2537 -0.0000 -0.3798 -6.5447 1.1672 -32.2324 -8.9401 35.8782 0.0000 26.3861 33.9239 0.3589 6.3341 -3.2494 32.8623 -24.3270 0.0000 4.9131 7.9236 -5.0080 -1.8055 -0.0000 0.0000 -23.3497 24.3506 2.3055 23.7265 -0.0000 0.0000 -16.0926 -14.2841 -15.6792 9.0523 0.0000 0.0000 -10.9683 -32.0793 -8.5463 8.0129 0.0000 0.0000
 11.5437 35.4698 -9.9859 5.4316 -15.7308 4.4828 -2.1003 -18.3590 -0.5432 -11.4966 13.2006 23.1014 -0.7589 28.3192 4.8997 -5.6982 2.8513 -61.1715 0.0000 -7.8521 35.8543 0.9619 -10.4326 5.2974 33.1476 26.2537 0.0000 -0.7465 -6.5823 0.5885 -33.3344 -9.0737 34.6238 0.0000 26.7248 33.0983 0.3548 5.7355 -3.5454 32.8623 -24.3270 0.0000 4.8894 7.6016 -5.2354 -1.8637 -0.0000 0.0000 -23.5538 24.6471 2.6959 23.8049 -0.0000 0.0000 -15.5794 -13.5789 -16.0070 7.8558 0.0000 -0.0000 -9.7561 -31.0311 -6.8949 11.0475 -0.0000 0.0000
 11.5476 35.4459 -9.9610 5.5424 -15.9154 4.6875 -2.0702 -18.0984 -0.1740 -11.5693 13.1630 23.0415 -0.8523 28.5552 4.8120 -6.2739 4.4577 -60.2105 0.0000 -7.5019 35.3408 0.8612 -9.9890 4.9531 33.1476 26.2537 -0.0000 -1.1770 -6.6227 0.0819 -34.3693 -9.2233 33.3042 -0.0000 27.1158 32.4434 0.3904 5.2680 -4.2444 32.8623 -24.3270 0.0000 4.8884 7.3173 -5.4299 -1.9165 0.0000 -0.0000 -23.7134 24.9298 2.9293 23.7062 0.0000 -0.0000 -14.9701 -12.7394 -16.2688 6.7311 -0.0000 0.0000 -8.5598 -30.3204 -4.9111 14.8909 -0.0000 0.0000
 11.5496 35.4228 -9.9403 5.7105 -16.0879 4.9381 -2.1002 -17.8276 0.1674 -11.6783 13.1434 22.9800 -0.8401 28.8641 4.6995 -7.0194 6.0001 -59.2163 0.0000 -7.2873 34.8345 0.8082 -9.7330 4.7701 33.1476 26.2537 -0.0000 -1.6500 -6.6636 -0.3700 -35.3519 -9.3220 31.9867 -0.0000 27.5676 31.8335 0.4150 4.7076 -5.0442 32.8623 -24.3270 -0.0000 4.8146 6.9589 -5.6461 -1.9614 -0.0000 0.0000 -23.8667 25.2854 3.1797 23.6702 -0.0000 0.0000 -14.4366 -11.9006 -16.5443 5.7420 0.0000 -0.0000 -7.5887 -29.9380 -2.9524 18.5976 -0.0000 0.0000
 11.5480 35.3998 -9.9206 5.8238 -16.2313 5.1954 -2.0698 -17.5066 0.4713 -11.8259 13.0611 22.9659 -1.0124 29.0533 4.7513 -7.5619 7.5245 -58.2215 -0.0000 -7.2954 33.8316 0.7360 -9.5043 4.4487 33.1476 26.2537 0.0000 -2.1240 -6.7494 -0.7895 -35.9855 -9.2672 30.7345 -0.0000 28.1229 30.6606 0.4257 4.1601 -5.8480 32.8623 -24.3270 0.0000 4.7872 6.5574 -5.8751 -2.0106 -0.0000 0.0000 -24.0160 25.6529 3.4616 23.6603 -0.0000 -0.0000 -13.8527 -11.0897 -16.8453 4.8581 0.0000 0.0000 -6.9314 -29.8300 -1.6342 21.3110 -0.0000 0.0000
 11.5408 35.3771 -9.8993 5.9372 -16.3076 5.4628 -2.0543 -17.2612 0.7517 -11.9880 12.9950 22.9921 -0.9988 29.3696 4.8143 -8.3387 8.8643 -57.3001 0.0000 -7.2823 33.0751 0.6961 -9.1913 4.3496 33.1476 26.2537 -0.0000 -2.6125 -6.7759 -1.1669 -37.1762 -9.5398 29.4721 -0.0000 28.6658 30.3380 0.4481 4.0483 -6.3222 32.8623 -24.3270 0.0000 4.7590 6.1425 -6.1029 -2.0789 -0.0000 -0.0000 -24.1206 25.9972 3.6294 23.6157 0.0000 -0.0000 -13.2761 -10.3972 -17.1661 4.0787 0.0000 0.0000 -6.7699 -29.9632 -0.8469 24.1707 -0.0000 0.0000
 11.5290 35.3564 -9.8810 6.0941 -16.4002 5.7504 -2.0975 -16.9241 1.0122 -12.1284 12.8798 23.0292 -1.0718 29.6208 4.9991 -8.9870 10.0473 -56.4303 -0.0000 -7.3099 32.4446 0.6792 -8.9869 4.3398 33.1476 26.2537 0.0000 -3.0685 -6.8175 -1.5189 -38.1920 -9.7751 28.2192 -0.0000 29.3533 29.9545 0.4393 3.7277 -6.7262 32.8623 -24.3270 0.0000 4.7016 5.8346 -6.3321 -2.1551 0.0000 0.0000 -24.1608 26.2772 3.7640 23.5512 -0.0000 0.0000 -12.7683 -9.7130 -17.4676 3.4380 -0.0000 0.0000 -6.8019 -30.2085 -0.1373 25.6781 0.0000 -0.0000
